<svg width="97" height="105" fill="none" xmlns="http://www.w3.org/2000/svg"><g clip-path="url(#clip0_101_2)"><path fill-rule="evenodd" clip-rule="evenodd" d="M86.54 82.281v-11.16l-.127.016c-.703-8.916-9.402-14.4-18.994-12.785l-1.477.249c-9.7 1.633-16.793 9.754-16.793 18.002v.993l-.055.006v11.04c0 5.325-4.441 9.84-9.718 10.058l-1.216.05c-5.04.208-9.01-3.662-9.01-8.621h-.007v-7.143l1.981-.2c2.017-.204 3.674-2.048 3.674-4.116v-3.33c6.124-2.619 12.012-7.207 16.302-12.805 3.567-4.653 6.255-9.697 7.559-15.303.812-3.495.88-5.577.88-9.211l-.311-3.176c0-1.995-1.55-3.242-3.566-3.051V12.457c0-9.405-8.029-13.812-17.053-10.32l-1.46.564c-1.248.482-2.25 1.875-2.25 3.115v.755c0 1.24 1.002 1.876 2.25 1.417l1.46-.537c6.046-2.224 11.142.85 11.142 6.956v18.966c-1.864.86-3.25 2.792-3.25 4.67v1.736c0 3.5-.281 8.727-2.306 12.683-1.245 2.432-2.421 4.11-4.152 6.227-3.685 4.508-9.376 7.384-13.693 8.02-4.283.63-9.511-.644-12.527-3.939-1.494-1.634-1.954-2.219-2.882-4.29-.626-1.397-1.101-3.357-1.309-5.493a43.784 43.784 0 01-.121-4.383V47.34c0-1.657-1.07-2.753-2.469-2.677v-16.17c0-5.208 3.834-10.84 8.73-12.64l1.208-.445c1.102-.405 2.002-1.7 2.002-2.89v-.636c0-1.189-.9-1.804-2.002-1.378l-1.209.467C8.342 13.845 2.896 22.29 2.896 29.86v15.905c-1.322.65-2.309 2.231-2.309 3.816l-.018.129a27.119 27.119 0 00.069 8.11c.79 5.114 3.032 9.745 6.205 13.136 2.958 3.162 7.264 5.518 12.177 6.43v3.093c0 1.95 1.49 3.38 3.353 3.192l1.86-.188v7.013l.028-.002c0 7.566 5.92 13.741 13.9 13.563l1.215-.027c8.224-.183 15.576-7.2 15.576-15.825v-1.013l.084-.006V75.919c0-5.434 4.795-10.571 10.906-11.484l1.478-.22c6.425-.96 11.855 3.012 11.855 8.89l.074-.008v9.716c-5 1.67-8.562 5.903-8.562 10.577 0 5.657 5.241 10.131 11.954 9.988 7.004-.15 12.908-5.227 12.908-11.334 0-4.941-3.89-8.809-9.11-9.764v.001z" fill="#91C959"/></g><defs><clipPath id="clip0_101_2"><path fill="#fff" transform="translate(.297 .945)" d="M0 0h95.351v103.109H0z"/></clipPath></defs></svg>