<svg width="126" height="92" fill="none" xmlns="http://www.w3.org/2000/svg"><g clip-path="url(#clip0_101_4)"><path d="M118.301 42.635l-3.339.465V23.211c0-3.173-3.011-5.17-6.678-4.432l-63.879 12.83c-2.6.52-4.68 3.065-4.68 5.719v16.414l-2.354.329c-2.517.355-4.515 2.735-4.515 5.334v18.768c0 2.599 1.998 4.568 4.515 4.404l2.135-.136v3.61c0 1.97 1.56 3.53 3.503 3.448 1.971-.082 3.586-1.778 3.586-3.803v-3.693l58.514-3.612v4.296c0 2.353 2.19 4.158 4.926 4.021 2.765-.11 5.036-2.16 5.036-4.541V77.79l3.202-.192c3.832-.246 7.007-3.091 7.007-6.347V47.56c.055-3.282-3.12-5.471-6.979-4.924zm-13.137 15.54c0 1.86-1.724 3.556-3.859 3.775l-51.81 5.252c-1.614.164-2.9-1.012-2.9-2.626V63.07c0-1.614 1.286-3.064 2.9-3.255l51.81-6.293c2.107-.246 3.859 1.04 3.859 2.928v1.723zM30.885 27.286c2.764-.601 4.79-3.83 4.105-6.483L30.283 2.939C29.818 1.133 28.176.285 26.287.832L8.032 6.304c-1.67.492-3.12 2.216-3.503 4.186L.834 28.956c-.52 2.654 1.15 4.733 3.421 4.213l9.607-2.106V83.78l-3.668.22c-1.368.082-2.463 1.395-2.463 2.9v1.286c0 1.532 1.095 2.708 2.463 2.653l13.466-.547c1.478-.055 2.71-1.422 2.71-3.037v-1.367c0-1.615-1.205-2.846-2.71-2.736l-3.367.219V29.613l10.592-2.326z" fill="#815AA5"/></g><defs><clipPath id="clip0_101_4"><path fill="#fff" transform="translate(.739 .668)" d="M0 0h125v91H0z"/></clipPath></defs></svg>