<svg width="64" height="101" fill="none" xmlns="http://www.w3.org/2000/svg"><g clip-path="url(#clip0_101_5)"><path d="M58.758 8.807l-19.87 6.757V3.226c0-1.942-1.642-2.872-3.667-2.052L21.62 6.618c-1.779.712-3.202 2.736-3.202 4.542v11.38L3.665 27.548c-1.533.52-2.737 2.298-2.737 3.94v61.636c0 1.67 1.232 2.955 2.737 2.9l5.693-.219v.028c0 2.571 1.97 4.623 4.433 4.568 2.518-.054 4.626-2.27 4.626-4.951v-.028l20.444-.82c0 2.927 2.518 5.252 5.693 5.17 3.257-.055 5.939-2.599 5.939-5.636l8.265-.328c2.381-.11 4.352-1.887 4.352-4.021V11.16c0-2.134-1.97-3.174-4.352-2.353zm-35.497 2.107L33.47 7.029v10.368l-10.21 3.475v-9.958zM36.18 63.358l-15.408 2.49c-1.287.219-2.354-.684-2.354-2.025 0-1.313 1.04-2.571 2.354-2.818l15.408-2.79c1.478-.274 2.71.684 2.71 2.106 0 1.45-1.232 2.818-2.71 3.037zm0-10.45l-15.408 3.091c-1.287.274-2.354-.602-2.354-1.915 0-1.313 1.04-2.626 2.354-2.9l15.408-3.392c1.478-.329 2.71.574 2.71 1.997 0 1.422-1.232 2.818-2.71 3.119zm0-10.451l-15.408 3.72c-1.287.301-2.354-.52-2.354-1.832 0-1.313 1.04-2.654 2.354-3.01l15.408-4.021c1.478-.383 2.71.465 2.71 1.887 0 1.423-1.232 2.9-2.71 3.256z" fill="#FCBC38"/></g><defs><clipPath id="clip0_101_5"><path fill="#fff" transform="translate(.928 .875)" d="M0 0h63v100H0z"/></clipPath></defs></svg>