<svg width="86" height="106" fill="none" xmlns="http://www.w3.org/2000/svg"><g clip-path="url(#clip0_101_6)"><path d="M79.79 8.502l-42.64 13.68V2.647c0-2.16-1.75-3.2-3.913-2.352L3.843 12.06c-1.697.684-3.066 2.763-3.066 4.65v85.657c0 1.888 1.369 3.365 3.066 3.31l75.948-3.146c2.9-.109 5.255-2.243 5.255-4.76V11.402c.027-2.544-2.354-3.802-5.255-2.9zm-69.653 11.71l15.464-5.582v11.272l-15.464 4.951V20.212zm0 21.284l15.464-4.35v11.271l-15.464 3.72v-10.64zM25.601 93.31l-15.464 1.258V83.927l15.464-1.888v11.272zm0-22.406l-15.464 2.49V62.751l15.464-3.118v11.271zm23.701 20.6l-6.322.52V80.07l6.322-.766v12.201zm.028-24.375l-6.323 1.012V56.187L49.33 54.9v12.23zm0-24.403l-6.323 1.532V32.303l6.323-1.778v12.202zM70.02 89.7l-7.198.602v-12.75l7.198-.875V89.7zm0-25.908l-7.198 1.149V52.192l7.198-1.45v13.05zm0-26.044l-7.198 1.75V26.75l7.198-2.025v13.023z" fill="#EF3952"/></g><defs><clipPath id="clip0_101_6"><path fill="#fff" transform="translate(.777)" d="M0 0h85v106H0z"/></clipPath></defs></svg>