<svg width="105" height="76" fill="none" xmlns="http://www.w3.org/2000/svg"><path d="M82.278 33.784l21.43-3.858v-5.772a3.7 3.7 0 00-1.204-2.763L80.307 1.858C79.377.49 77.544-.002 75.546.572l-57.83 16.223c-1.368.383-2.6 1.56-3.202 3.01L1.431 42.044a4.687 4.687 0 00-.63 2.299v4.13l12.453-2.242c1.122-.192 2.053.629 2.053 1.86v6.785c0 1.504-1.341 2.762-2.655 2.489L.774 53.864v15.922l-.082.028h.082V71.7c0 1.97 1.396 3.475 3.147 3.31l7.855-.629c1.861-.164 3.394-1.97 3.394-4.049V68.39l63.578-6.238v2.217c0 2.544 2.326 4.431 5.254 4.185l13.849-1.121c3.202-.247 5.857-2.681 5.857-5.417V59.69h.027V37.368L83.263 47.38c-2.025.849-4.078-.164-4.078-2.024v-8.317c-.027-1.477 1.369-2.954 3.093-3.255zM63.914 46.177l-2.71 9.712c-.219.82-.985 1.477-1.86 1.586l-29.395 3.557c-.712.082-1.341-.328-1.505-1.04l-2.217-8.097c-.274-.985.465-2.134 1.478-2.326 5.775-1.012 26.164-4.186 34.32-5.417 1.314-.218 2.244.794 1.889 2.025zM10.709 35.562l7.554-13.077L74.97 7.74 86.3 18.93 10.71 35.562z" fill="#F58546"/></svg>