<svg width="96" height="94" fill="none" xmlns="http://www.w3.org/2000/svg"><path d="M39.668 4.003C15.665 12.894.366 36.258.366 57.433l.028.492c.082 1.669 1.779 2.216 2.928.903l3.914-4.46c1.998-2.27 4.871-3.063 7.116-1.887l6.322 3.283c2.19 1.149 5.118.602 7.39-1.395l7.635-6.73c.301-.247.602-.493.93-.712v34.225l-.027.547-.054.383-.055.356-.082.3-.137.493-.192.493-.3.656-.33.52-.245.355-.356.438-.329.329-.273.246-.356.273-.383.246-.301.165-.41.191-.302.11-.164.054-.301.082-.192.055-.191.028-.22.027-.273.027h-.547l-.274-.027-.246-.027-.301-.083-.22-.054-.246-.082-.273-.137-.22-.11-.3-.191-.301-.192-.247-.191-.164-.137-.219-.219-.219-.246-.219-.301-.273-.438-.137-.273-.22-.465-.136-.41-.082-.302-.055-.246-.055-.3-.027-.192-.055-.41v-.685l-.027-.302-.055-.191-.055-.192-.054-.164-.137-.246-.082-.137-.082-.136-.11-.137-.164-.164-.137-.11-.164-.11-.137-.081-.164-.082-.11-.055-.219-.082-.136-.028-.274-.054h-.438l-.246.027-.192.055-.164.054-.137.055-.274.137-.191.137-.165.137-.136.136-.192.192-.192.219-.164.246-.137.274-.082.218-.082.274-.055.3-.027.247v.383l.027.547.028.493.055.52.082.465.11.574.163.602.192.63.137.3.328.739.137.3.137.274.41.657.302.41.218.274.411.492.328.329.329.328.246.219.329.273.355.274.438.3.465.274.493.247.547.218.52.192.575.164.41.082.357.055.383.055.794.054h.738l.493-.027.41-.055.63-.11.575-.136.356-.11.328-.081.328-.137.493-.192.383-.164.41-.219.33-.164.465-.273.383-.247.355-.246.602-.465.438-.41.493-.493.575-.656.3-.41.466-.657.301-.465.274-.493.11-.191.109-.246.082-.165.055-.11.082-.19.054-.137.11-.247.11-.246.082-.191.054-.192.082-.246.028-.11.054-.164.055-.164.028-.11.027-.109.027-.11.028-.163.027-.082.028-.11.027-.137.027-.082.028-.082.027-.082s.027-.082.027-.11v-.081l.028-.082.027-.082v-.137l.027-.11.028-.136V45.532a6.653 6.653 0 011.642.465l8.375 3.83c2.846 1.286 6.678.575 9.66-1.86l8.841-7.25c3.53-2.9 8.348-3.748 11.823-1.97a812.41 812.41 0 006.897 3.475c2.217 1.094 5.61-.848 5.638-3.256v-.52c.22-28.971-26.547-45.085-55.257-34.443z" fill="#21A8E0"/></svg>